<?xml version="1.0" standalone="no"?><!DOCTYPE svg PUBLIC "-//W3C//DTD SVG 1.1//EN" "http://www.w3.org/Graphics/SVG/1.1/DTD/svg11.dtd"><svg t="1701000370680" class="icon" viewBox="0 0 1024 1024" version="1.1" xmlns="http://www.w3.org/2000/svg" p-id="1614" xmlns:xlink="http://www.w3.org/1999/xlink" width="200" height="200"><path d="M818.8928 198.656l-264.5504-99.9424a98.40128 98.40128 0 0 0-68.864-0.1536l-268.8 100.2496c-36.5056 13.6192-60.5696 47.4624-60.5696 85.1968v343.3472c0 94.464 177.7152 212.224 281.4464 272.896 44.9536 26.3168 101.1712 26.88 146.688 1.4336 107.52-60.0576 294.8608-178.3808 294.8608-274.3296V283.6992c0-37.5808-23.9104-71.3216-60.2112-85.0432z m-119.3472 205.2608L501.76 605.9008a30.83776 30.83776 0 0 1-21.9648 9.216h-1.1264a30.62272 30.62272 0 0 1-22.3232-10.8544L349.952 478.7712a30.7456 30.7456 0 0 1 3.584-43.3152 30.7456 30.7456 0 0 1 43.3152 3.584l84.5824 99.7888 174.2336-177.8688c11.8784-12.1344 31.3344-12.3392 43.4176-0.4608 12.1344 11.8784 12.3392 31.3344 0.4608 43.4176z" fill="#42E59B" p-id="1615"></path></svg>