<?xml version="1.0" standalone="no"?><!DOCTYPE svg PUBLIC "-//W3C//DTD SVG 1.1//EN" "http://www.w3.org/Graphics/SVG/1.1/DTD/svg11.dtd"><svg t="1701000413182" class="icon" viewBox="0 0 1024 1024" version="1.1" xmlns="http://www.w3.org/2000/svg" p-id="2111" xmlns:xlink="http://www.w3.org/1999/xlink" width="200" height="200"><path d="M392.2432 477.3376H244.0192c-49.3056 0-89.2928-39.9872-89.2928-89.2928V239.8208c0-49.3056 39.9872-89.2928 89.2928-89.2928h148.224c49.3056 0 89.2928 39.9872 89.2928 89.2928v148.224c0 49.3056-39.9872 89.2928-89.2928 89.2928zM392.2432 868.3008H244.0192c-49.3056 0-89.2928-39.9872-89.2928-89.2928V630.784c0-49.3056 39.9872-89.2928 89.2928-89.2928h148.224c49.3056 0 89.2928 39.9872 89.2928 89.2928v148.224c0 49.3056-39.9872 89.2928-89.2928 89.2928zM785.0496 868.3008h-148.224c-49.3056 0-89.2928-39.9872-89.2928-89.2928V630.784c0-49.3056 39.9872-89.2928 89.2928-89.2928h148.224c49.3056 0 89.2928 39.9872 89.2928 89.2928v148.224c0 49.3056-39.9872 89.2928-89.2928 89.2928zM647.7824 467.0464l-90.0096-90.0096c-34.8672-34.8672-34.8672-91.4432 0-126.3104l90.0096-90.0096c34.8672-34.8672 91.4432-34.8672 126.3104 0l90.0096 90.0096c34.8672 34.8672 34.8672 91.4432 0 126.3104l-90.0096 90.0096c-34.9184 34.8672-91.4432 34.8672-126.3104 0z" fill="#5097FF" p-id="2112"></path></svg>