<?xml version="1.0" standalone="no"?><!DOCTYPE svg PUBLIC "-//W3C//DTD SVG 1.1//EN" "http://www.w3.org/Graphics/SVG/1.1/DTD/svg11.dtd"><svg t="1725544515616" class="icon" viewBox="0 0 1024 1024" version="1.1" xmlns="http://www.w3.org/2000/svg" p-id="10653" xmlns:xlink="http://www.w3.org/1999/xlink" width="200" height="200"><path d="M893.649455 283.857455c25.762909-20.130909 40.261818-50.757818 40.261818-83.781819a106.263273 106.263273 0 0 0-106.356364-106.379636 104.96 104.96 0 0 0-82.990545 40.285091 456.866909 456.866909 0 0 1 149.085091 149.876364z m-759.854546-0.791273a439.761455 439.761455 0 0 1 149.061818-149.085091 106.682182 106.682182 0 0 0-82.990545-39.470546 106.263273 106.263273 0 0 0-106.356364 106.356364c0 32.232727 15.290182 62.836364 40.261818 82.199273z m671.185455 481.838545a383.837091 383.837091 0 0 0 93.486545-251.392c0-212.712727-172.450909-385.163636-385.163636-385.163636s-385.163636 172.450909-385.163637 385.163636c0 92.672 33.047273 182.109091 93.463273 251.392l-94.254545 95.883637a30.161455 30.161455 0 0 0 0 41.914181 30.161455 30.161455 0 0 0 41.890909 0l95.092363-95.092363a381.789091 381.789091 0 0 0 248.971637 91.880727c91.857455 0 180.503273-32.232727 249.809454-91.880727l95.883637 95.883636c5.632 5.655273 13.684364 8.890182 20.945454 8.890182 7.261091 0 15.313455-3.234909 20.945455-8.866909a30.161455 30.161455 0 0 0 0-41.890909l-95.883637-96.721455z m-122.461091-85.410909c-5.632 6.446545-13.684364 10.472727-22.574546 10.472727-6.423273 0-13.684364-2.397091-19.316363-7.237818l-155.531637-133.771636c-6.446545-5.632-10.472727-13.684364-10.472727-21.76V366.08c0-16.128 12.893091-29.812364 29.812364-29.812364 16.128 0 29.812364 12.893091 29.812363 29.789091v147.479273l145.850182 124.090182c12.101818 10.472727 13.707636 28.997818 2.420364 41.890909z" fill="#F56C6C" p-id="10654"></path></svg>