<?xml version="1.0" standalone="no"?><!DOCTYPE svg PUBLIC "-//W3C//DTD SVG 1.1//EN" "http://www.w3.org/Graphics/SVG/1.1/DTD/svg11.dtd"><svg t="1701001826796" class="icon" viewBox="0 0 1024 1024" version="1.1" xmlns="http://www.w3.org/2000/svg" p-id="2443" xmlns:xlink="http://www.w3.org/1999/xlink" width="200" height="200"><path d="M764.5696 125.5936h-509.952c-86.784 0-157.3888 70.6048-157.3888 157.3888v353.9456c0 86.784 70.6048 157.3888 157.3888 157.3888h239.5136c0.9216 0 1.8432 0.3072 2.56 0.8704l122.2656 97.9968c11.4688 9.1648 25.2416 13.9264 39.2192 13.9264 9.2672 0 18.5856-2.048 27.3408-6.2976 22.016-10.5472 35.6864-32.3072 35.6864-56.7296v-45.7216c0-2.2528 1.792-4.0448 4.0448-4.0448h39.2704c86.784 0 157.3888-70.6048 157.3888-157.3888V282.9824c0.0512-86.784-70.5536-157.3888-157.3376-157.3888zM502.016 666.4704a36.2496 36.2496 0 1 1 0-72.4992 36.2496 36.2496 0 0 1 0 72.4992z m56.3712-197.9904c-15.9232 8.9088-25.3952 24.2688-25.3952 41.1136v24.3712c0 16.9472-13.7728 30.72-30.72 30.72s-30.72-13.7728-30.72-30.72v-24.3712c0-38.8608 21.8112-75.1616 56.8832-94.7712 18.0224-10.0864 28.5696-29.184 27.4432-49.8176-1.4336-26.9824-23.6544-49.2544-50.688-50.688-15.0016-0.8192-29.0816 4.4032-39.8848 14.6432-10.8032 10.24-16.7424 24.064-16.7424 38.9632 0 16.9472-13.7728 30.72-30.72 30.72s-30.72-13.7728-30.72-30.72c0-31.4368 13.056-61.8496 35.8912-83.5072 23.1424-21.9648 53.4016-33.024 85.4016-31.4368 57.9584 3.0208 105.7792 50.8416 108.8 108.8 2.304 44.2368-20.224 85.0944-58.8288 106.7008z" fill="#F39800" p-id="2444"></path></svg>