<?xml version="1.0" standalone="no"?><!DOCTYPE svg PUBLIC "-//W3C//DTD SVG 1.1//EN" "http://www.w3.org/Graphics/SVG/1.1/DTD/svg11.dtd"><svg t="1701001953141" class="icon" viewBox="0 0 1024 1024" version="1.1" xmlns="http://www.w3.org/2000/svg" p-id="2609" xmlns:xlink="http://www.w3.org/1999/xlink" width="200" height="200"><path d="M453.4784 501.9648l-7.5264 43.8272 39.3728-20.6848c16.128-8.4992 35.3792-8.4992 51.5072 0l39.3728 20.6848-7.5264-43.8272c-3.072-17.9712 2.8672-36.3008 15.9232-48.9984l31.8464-31.0272-43.9808-6.4c-18.0224-2.6112-33.6384-13.9264-41.6768-30.3104l-19.6608-39.8848-19.6608 39.8848a55.552 55.552 0 0 1-41.6768 30.3104l-43.9808 6.4 31.8464 31.0272c12.9536 12.7488 18.8928 31.0784 15.8208 48.9984z" fill="#FF5757" p-id="2610"></path><path d="M731.3408 97.0752H290.816c-89.344 0-161.792 72.448-161.792 161.792v503.296c0 89.344 72.448 161.792 161.792 161.792h440.5248c89.344 0 161.792-72.448 161.792-161.792v-503.296c0-89.3952-72.448-161.792-161.792-161.792zM340.0192 400.5888c6.5536-20.1728 23.7056-34.6112 44.6976-37.6832l53.0432-7.68L461.4656 307.2c9.4208-19.0464 28.416-30.8736 49.664-30.8736 21.248 0 40.2432 11.8272 49.664 30.8736l23.7056 48.0256 53.0432 7.68c20.992 3.072 38.144 17.5104 44.6976 37.6832 6.5536 20.1728 1.1776 41.9328-14.0288 56.7296l-38.3488 37.376 9.0624 52.7872c3.584 20.9408-4.864 41.6768-22.016 54.1696a55.00416 55.00416 0 0 1-58.3168 4.1984l-47.4112-24.9344-47.4112 24.9344a54.96832 54.96832 0 0 1-58.2656-4.2496c-17.152-12.4928-25.6-33.2288-22.016-54.1696l9.0624-52.7872-38.3488-37.376c-15.36-14.7456-20.736-36.4544-14.1824-56.6784z m331.8784 377.9584H350.3104c-16.9472 0-30.72-13.7728-30.72-30.72s13.7728-30.72 30.72-30.72h321.5872c16.9472 0 30.72 13.7728 30.72 30.72s-13.7728 30.72-30.72 30.72z" fill="#FF5757" p-id="2611"></path></svg>