<?xml version="1.0" standalone="no"?><!DOCTYPE svg PUBLIC "-//W3C//DTD SVG 1.1//EN" "http://www.w3.org/Graphics/SVG/1.1/DTD/svg11.dtd"><svg t="1701001973439" class="icon" viewBox="0 0 1024 1024" version="1.1" xmlns="http://www.w3.org/2000/svg" p-id="2940" xmlns:xlink="http://www.w3.org/1999/xlink" width="200" height="200"><path d="M797.952 143.4112H221.6448c-67.7376 0-122.6752 54.9376-122.6752 122.6752v368.2816c0 67.7376 54.9376 122.6752 122.6752 122.6752h250.7776v55.6032H315.4432c-20.6336 0-37.376 16.7424-37.376 37.376s16.7424 37.376 37.376 37.376h388.7104c20.6336 0 37.376-16.7936 37.376-37.376s-16.7936-37.376-37.376-37.376h-156.9792v-55.6032h250.7776c67.7376 0 122.6752-54.9376 122.6752-122.6752V266.0864c0.0512-67.7376-54.8864-122.6752-122.6752-122.6752z m-76.4928 283.4432l-106.2912 114.0224a44.4928 44.4928 0 0 1-88.0128-9.216c0-1.536 0.1024-3.0208 0.2048-4.5056L448.256 426.8544h-0.256c-1.3312 0-2.6112-0.1024-3.9424-0.2048l-100.9152 103.4752c0 0.512 0.0512 1.024 0.0512 1.536 0 24.576-19.9168 44.4928-44.4928 44.4928s-44.4928-19.9168-44.4928-44.4928c0-24.576 19.9168-44.4928 44.4928-44.4928h0.4608l104.448-107.0592A44.43648 44.43648 0 0 1 448 337.92c24.576 0 44.4928 19.9168 44.4928 44.4928 0 0.4096-0.0512 0.8192-0.0512 1.2288l81.7664 103.68c2.0992 0.1024 4.1984 0.3584 6.1952 0.7168l96.1536-103.1168c-0.0512-0.8192-0.1024-1.6896-0.1024-2.5088 0-24.576 19.9168-44.4928 44.4928-44.4928s44.4928 19.9168 44.4928 44.4928c-0.1024 24.3712-19.712 44.1344-43.9808 44.4416z" fill="#24BCFF" p-id="2941"></path></svg>