<?xml version="1.0" standalone="no"?><!DOCTYPE svg PUBLIC "-//W3C//DTD SVG 1.1//EN" "http://www.w3.org/Graphics/SVG/1.1/DTD/svg11.dtd"><svg t="1701001961482" class="icon" viewBox="0 0 1024 1024" version="1.1" xmlns="http://www.w3.org/2000/svg" p-id="2776" xmlns:xlink="http://www.w3.org/1999/xlink" width="200" height="200"><path d="M266.3936 768.9216c54.016 0 97.9968-43.9808 97.9968-97.9968V326.4c0-54.016-43.9808-97.9968-97.9968-97.9968S168.3968 272.384 168.3968 326.4v344.5248c0 54.0672 43.9296 97.9968 97.9968 97.9968zM771.4816 768.9216c54.016 0 97.9968-43.9808 97.9968-97.9968V374.9376c0-54.016-43.9808-97.9968-97.9968-97.9968s-97.9968 43.9808-97.9968 97.9968v296.0384c0 54.016 43.9296 97.9456 97.9968 97.9456zM521.1648 768.9216c54.016 0 97.9968-43.9808 97.9968-97.9968v-464.384c0-54.016-43.9808-97.9968-97.9968-97.9968s-97.9968 43.9808-97.9968 97.9968v464.384c0 54.0672 43.9808 97.9968 97.9968 97.9968zM917.1456 838.2976H128.6144c-16.9472 0-30.72 13.7728-30.72 30.72s13.7728 30.72 30.72 30.72h788.5312c16.9472 0 30.72-13.7728 30.72-30.72s-13.7728-30.72-30.72-30.72z" fill="#24BCFF" p-id="2777"></path></svg>