<?xml version="1.0" standalone="no"?><!DOCTYPE svg PUBLIC "-//W3C//DTD SVG 1.1//EN" "http://www.w3.org/Graphics/SVG/1.1/DTD/svg11.dtd"><svg t="1725546328243" class="icon" viewBox="0 0 1024 1024" version="1.1" xmlns="http://www.w3.org/2000/svg" p-id="57956" xmlns:xlink="http://www.w3.org/1999/xlink" width="200" height="200"><path d="M485.8 537.8m-421.8 0a421.8 421.8 0 1 0 843.6 0 421.8 421.8 0 1 0-843.6 0Z" fill="#FF5F5F" p-id="57957"></path><path d="M485.8 817.6c-74.7 0-145-29.1-197.8-81.9s-82-123.2-82-197.9 29.1-145 81.9-197.8 123.1-82 197.9-82 145 29.1 197.8 81.9 81.9 123.1 81.9 197.8-29.1 145-81.9 197.8-123.1 82.1-197.8 82.1z" fill="#FF5F5F" p-id="57958"></path><path d="M485.8 303c62.7 0 121.7 24.4 166 68.8 44.3 44.3 68.8 103.3 68.8 166s-24.4 121.7-68.8 166c-44.3 44.3-103.3 68.8-166 68.8s-121.7-24.4-166-68.8-68.8-103.3-68.8-166 24.4-121.7 68.8-166 103.3-68.8 166-68.8m0-90C306.4 213 161 358.4 161 537.8s145.4 324.8 324.8 324.8 324.8-145.4 324.8-324.8S665.1 213 485.8 213z" fill="#FFFFFF" p-id="57959"></path><path d="M485.8 537.8m-128.9 0a128.9 128.9 0 1 0 257.8 0 128.9 128.9 0 1 0-257.8 0Z" fill="#FFFFFF" p-id="57960"></path><path d="M789.899 829.902l-13.152 13.152-304.619-304.619 13.152-13.152z" fill="#F34D4B" p-id="57961"></path><path d="M811.2 324.9l-102.6-8.8-9.9-103.7L847.8 63.3l9.9 103.7 102.6 8.8z" fill="#00B5FC" p-id="57962"></path><path d="M472.001 538.367l383.885-383.884 13.152 13.152-383.885 383.884z" fill="#593F3F" p-id="57963"></path></svg>