<?xml version="1.0" standalone="no"?><!DOCTYPE svg PUBLIC "-//W3C//DTD SVG 1.1//EN" "http://www.w3.org/Graphics/SVG/1.1/DTD/svg11.dtd"><svg height="600" node-id="1" sillyvg="true" template-height="600" template-width="600" version="1.1" viewBox="0 0 600 600" width="600" xmlns="http://www.w3.org/2000/svg" xmlns:xlink="http://www.w3.org/1999/xlink"><defs node-id="57"><linearGradient gradientUnits="objectBoundingBox" id="linearGradient-1" node-id="5" spreadMethod="pad" x1="1.4458808" x2="0.29515958" y1="0.6691032" y2="0.6732615"><stop offset="0" stop-color="#e0e5ef" stop-opacity="0"></stop><stop offset="1" stop-color="#e0e5ef"></stop></linearGradient><linearGradient gradientUnits="objectBoundingBox" id="linearGradient-2" node-id="8" spreadMethod="pad" x1="1.4458808" x2="0.29515958" y1="0.669094" y2="0.6732521"><stop offset="0" stop-color="#e0e5ef" stop-opacity="0"></stop><stop offset="1" stop-color="#e0e5ef"></stop></linearGradient><linearGradient gradientUnits="objectBoundingBox" id="linearGradient-3" node-id="11" spreadMethod="pad" x1="0.9340618" x2="0.40599936" y1="0.988" y2="1"><stop offset="0" stop-color="#e0e5ef" stop-opacity="0"></stop><stop offset="1" stop-color="#e0e5ef"></stop></linearGradient><linearGradient gradientUnits="objectBoundingBox" id="linearGradient-4" node-id="14" spreadMethod="pad" x1="0.9251822" x2="0.40792233" y1="0.988" y2="1"><stop offset="0" stop-color="#e0e5ef" stop-opacity="0"></stop><stop offset="1" stop-color="#e0e5ef"></stop></linearGradient><linearGradient gradientUnits="objectBoundingBox" id="linearGradient-6" node-id="20" spreadMethod="pad" x1="0.5" x2="-0.31214738" y1="0.4672858" y2="0.31614318"><stop offset="0" stop-color="#e8ebf1" stop-opacity="0.23774004"></stop><stop offset="1" stop-color="#a2abb9"></stop></linearGradient><linearGradient gradientUnits="objectBoundingBox" id="linearGradient-7" node-id="23" spreadMethod="pad" x1="0.5" x2="0.513666" y1="0.6082201" y2="0.4445787"><stop offset="0" stop-color="#a2abb9"></stop><stop offset="1" stop-color="#e7eaf0"></stop></linearGradient><linearGradient gradientUnits="objectBoundingBox" id="linearGradient-8" node-id="26" spreadMethod="pad" x1="0.5" x2="0.513666" y1="0.7730074" y2="0.30423036"><stop offset="0" stop-color="#a2abb9"></stop><stop offset="1" stop-color="#e7eaf0"></stop></linearGradient><linearGradient gradientUnits="objectBoundingBox" id="linearGradient-9" node-id="29" spreadMethod="pad" x1="0.5" x2="0.5" y1="3.1184883" y2="-0.14316311"><stop offset="0" stop-color="#a2abb9"></stop><stop offset="1" stop-color="#e7eaf0"></stop></linearGradient><linearGradient gradientUnits="objectBoundingBox" id="linearGradient-10" node-id="32" spreadMethod="pad" x1="0.5" x2="0.040798604" y1="1" y2="-0.28957963"><stop offset="0" stop-color="#a2abb9"></stop><stop offset="1" stop-color="#e7eaf0"></stop></linearGradient></defs><g node-id="112"><path d="M 297.37 77.00 C 348.40 77.00 395.46 93.76 433.17 122.00 L 418.00 122.00 C 410.82 122.00 405.00 127.82 405.00 135.00 L 405.00 135.00 L 405.00 136.00 C 405.00 143.18 410.82 149.00 418.00 149.00 L 418.00 149.00 L 463.18 149.00 C 471.75 158.24 479.53 168.19 486.43 178.76 L 507.88 178.76 C 515.61 178.76 521.88 185.03 521.88 192.76 L 521.88 193.54 C 521.88 199.93 517.60 205.32 511.75 207.00 L 492.00 207.00 C 483.16 207.00 476.00 214.16 476.00 223.00 L 476.00 223.00 L 476.00 228.00 C 476.00 236.84 483.16 244.00 492.00 244.00 L 492.00 244.00 L 559.90 244.00 C 566.85 245.74 572.00 252.03 572.00 259.52 L 572.00 260.41 C 572.00 269.25 564.84 276.41 556.00 276.41 L 520.82 276.41 C 521.52 283.52 521.88 290.72 521.88 298.00 C 521.88 420.05 421.36 519.00 297.37 519.00 C 198.19 519.00 114.03 455.70 84.32 367.90 L 75.89 367.90 C 72.49 367.90 69.72 365.14 69.72 361.73 C 69.72 359.13 71.33 356.91 73.61 356.00 L 84.00 356.00 C 91.18 356.00 97.00 350.18 97.00 343.00 L 97.00 343.00 L 97.00 342.00 C 97.00 334.82 91.18 329.00 84.00 329.00 L 84.00 329.00 L 75.05 329.00 C 75.04 328.95 75.03 328.89 75.03 328.84 L 52.85 328.84 C 47.18 328.84 42.58 324.24 42.58 318.56 C 42.58 312.88 47.18 308.28 52.85 308.28 L 73.10 308.28 C 72.94 304.87 72.86 301.45 72.86 298.00 C 72.86 265.37 80.04 234.39 92.94 206.51 L 57.00 206.52 C 41.54 206.52 29.00 193.98 29.00 178.52 L 29.00 176.95 C 29.00 162.03 40.67 149.83 55.39 149.00 L 182.00 149.00 C 187.52 149.00 192.00 144.52 192.00 139.00 C 192.00 133.48 187.52 129.00 182.00 129.00 L 182.00 129.00 L 152.69 129.00 C 152.94 128.80 153.18 128.59 153.42 128.39 L 138.85 128.40 C 128.35 128.40 119.85 119.89 119.85 109.40 L 119.85 108.33 C 119.85 97.84 128.35 89.33 138.85 89.33 L 223.23 89.33 C 246.44 81.34 271.39 77.00 297.37 77.00 Z" fill="#f3f3fa" fill-opacity="0.6015942" fill-rule="evenodd" group-id="1" id="背景" node-id="36" stroke="none" target-height="442" target-width="543" target-x="29" target-y="77"></path></g><path d="M 181.78 213.97 L 174.47 213.97 C 174.47 199.33 162.60 187.47 147.97 187.47 C 133.33 187.47 121.47 199.33 121.47 213.97 L 116.13 213.97 C 109.39 213.97 103.94 219.90 103.94 227.22 C 103.94 234.54 109.40 240.47 116.13 240.47 L 181.78 240.47 C 188.51 240.47 193.97 234.54 193.97 227.22 C 193.97 219.90 188.51 213.97 181.78 213.97 Z" fill="url(#linearGradient-1)" fill-rule="nonzero" id="路径" node-id="37" stroke="none" target-height="53" target-width="90.034676" target-x="103.93691" target-y="187.4683"></path><path d="M 368.90 138.63 L 363.66 138.63 C 363.66 128.13 355.15 119.63 344.66 119.63 C 334.17 119.63 325.66 128.13 325.66 138.63 L 321.83 138.63 C 317.00 138.63 313.09 142.88 313.09 148.13 C 313.09 153.37 317.00 157.63 321.83 157.63 L 368.90 157.63 C 373.73 157.63 377.64 153.37 377.64 148.13 C 377.64 142.88 373.73 138.63 368.90 138.63 Z" fill="url(#linearGradient-2)" fill-rule="nonzero" id="路径" node-id="38" stroke="none" target-height="38" target-width="64.5549" target-x="313.08844" target-y="119.627625"></path><path d="M 284.50 415.00 C 345.88 415.00 401.15 420.01 439.79 428.00 C 477.58 428.26 508.00 439.57 508.00 453.50 C 508.00 464.54 488.89 473.94 462.15 477.49 C 455.77 479.37 448.58 481.15 440.69 482.81 C 440.90 483.86 441.00 484.93 441.00 486.00 C 441.00 510.30 388.17 530.00 323.00 530.00 C 264.37 530.00 215.72 514.05 206.55 493.16 C 128.32 487.22 73.00 472.60 73.00 455.50 C 73.00 433.13 167.69 415.00 284.50 415.00 Z" fill="#e7eaf0" fill-rule="evenodd" id="形状结合" node-id="39" stroke="none" target-height="115" target-width="435" target-x="73" target-y="415"></path><path d="M 463.31 400.57 L 463.62 401.62 L 463.88 402.61 L 464.00 403.41 L 463.76 405.05 L 463.06 406.47 L 461.98 407.62 L 460.62 408.41 L 459.44 408.47 L 458.31 408.53 L 457.12 408.53 L 447.38 408.66 L 447.38 418.97 L 447.47 423.57 L 447.69 427.74 L 448.00 432.00 L 439.00 432.00 L 439.19 429.59 L 439.31 425.73 L 439.38 419.22 L 439.38 409.77 L 438.24 410.47 L 437.00 410.70 L 435.99 410.57 L 435.16 410.20 L 434.45 409.62 L 433.88 408.84 L 426.81 408.47 L 424.92 407.71 L 423.38 406.40 L 422.61 405.29 L 422.16 404.06 L 422.00 402.67 L 422.06 401.99 L 422.25 401.37 L 423.81 397.79 L 424.07 396.47 L 424.59 395.26 L 425.34 394.16 L 426.25 393.22 L 436.06 375.25 L 436.12 375.25 L 437.44 373.22 L 438.94 371.54 L 440.10 370.70 L 441.48 370.18 L 443.12 370.00 L 445.27 370.30 L 447.16 371.17 L 448.71 372.53 L 449.81 374.26 L 457.69 389.51 L 459.02 390.13 L 460.18 390.99 L 461.19 392.11 L 461.95 393.40 L 462.41 394.81 L 462.56 396.37 L 462.25 398.47 L 463.31 400.57 Z" fill="url(#linearGradient-3)" fill-rule="nonzero" group-id="2" id="路径" node-id="41" stroke="none" target-height="62" target-width="42" target-x="422" target-y="370"></path><path d="M 503.31 420.57 L 503.62 421.62 L 503.88 422.61 L 504.00 423.41 L 503.76 425.05 L 503.06 426.47 L 501.98 427.62 L 500.62 428.41 L 499.44 428.47 L 498.31 428.53 L 497.12 428.53 L 487.38 428.66 L 487.38 438.97 L 487.47 443.57 L 487.69 447.74 L 488.00 452.00 L 479.00 452.00 L 479.19 449.59 L 479.31 445.73 L 479.38 439.22 L 479.38 429.77 L 478.24 430.47 L 477.00 430.70 L 475.99 430.57 L 475.16 430.20 L 474.45 429.62 L 473.88 428.84 L 466.81 428.47 L 464.92 427.71 L 463.38 426.40 L 462.61 425.29 L 462.16 424.06 L 462.00 422.67 L 462.06 421.99 L 462.25 421.37 L 463.81 417.79 L 464.07 416.47 L 464.59 415.26 L 465.34 414.16 L 466.25 413.22 L 476.06 395.25 L 476.12 395.25 L 477.44 393.22 L 478.94 391.54 L 480.10 390.70 L 481.48 390.18 L 483.12 390.00 L 485.27 390.30 L 487.16 391.17 L 488.71 392.53 L 489.81 394.26 L 497.69 409.51 L 499.02 410.13 L 500.18 410.99 L 501.19 412.11 L 501.95 413.40 L 502.41 414.81 L 502.56 416.37 L 502.25 418.47 L 503.31 420.57 Z" fill="url(#linearGradient-3)" fill-rule="nonzero" group-id="2" id="路径" node-id="42" stroke="none" target-height="62" target-width="42" target-x="462" target-y="390"></path><path d="M 150.03 413.39 L 150.47 414.88 L 150.82 416.28 L 151.00 417.42 L 150.85 419.01 L 150.41 420.45 L 149.68 421.76 L 148.17 423.39 L 146.26 424.52 L 144.59 424.61 L 143.01 424.69 L 141.34 424.69 L 127.65 424.87 L 127.65 439.51 L 127.78 446.04 L 128.08 451.95 L 128.52 458.00 L 115.88 458.00 L 116.14 454.58 L 116.32 449.10 L 116.41 439.86 L 116.41 426.45 L 115.35 427.19 L 114.25 427.62 L 113.07 427.76 L 111.66 427.58 L 110.48 427.06 L 109.49 426.24 L 108.68 425.13 L 98.76 424.61 L 96.93 423.96 L 95.33 422.99 L 93.93 421.67 L 92.86 420.09 L 92.22 418.34 L 92.00 416.37 L 92.09 415.40 L 92.35 414.53 L 94.55 409.44 L 94.91 407.58 L 95.64 405.85 L 96.69 404.29 L 97.97 402.96 L 111.75 377.45 L 111.84 377.45 L 113.69 374.57 L 115.79 372.19 L 117.43 370.99 L 119.36 370.26 L 121.68 370.00 L 123.73 370.19 L 125.61 370.74 L 127.34 371.67 L 128.87 372.90 L 130.11 374.35 L 131.07 376.05 L 142.13 397.70 L 144.00 398.57 L 145.63 399.79 L 147.05 401.38 L 148.12 403.21 L 148.76 405.21 L 148.98 407.43 L 148.88 408.84 L 148.54 410.41 L 150.03 413.39 Z" fill="url(#linearGradient-4)" fill-rule="nonzero" group-id="2" id="路径" node-id="43" stroke="none" target-height="88" target-width="59" target-x="92" target-y="370"></path><path d="M 216.00 460.04 L 408.19 558.00 L 549.00 478.11 L 368.23 422.00 Z" fill="url(#linearGradient-6)" fill-opacity="0.5" fill-rule="nonzero" group-id="3,4" id="Path-10" node-id="45" stroke="none" target-height="136" target-width="333" target-x="216" target-y="422"></path><path d="M 231.90 303.00 L 211.00 353.00 L 382.00 353.00 L 360.76 303.00 Z" fill="url(#linearGradient-7)" fill-rule="nonzero" group-id="3" id="Path-7" node-id="46" stroke="none" target-height="50" target-width="171" target-x="211" target-y="303"></path><path d="M 211.00 353.00 L 382.00 353.00 L 376.60 460.00 L 216.40 460.00 Z" fill="url(#linearGradient-8)" fill-rule="nonzero" group-id="3" id="Rectangle" node-id="47" stroke="none" target-height="107" target-width="171" target-x="211" target-y="353"></path><path d="M 267.00 369.00 L 326.00 369.00 L 327.36 369.19 L 328.52 369.68 L 329.54 370.46 L 330.32 371.48 L 330.81 372.64 L 331.00 374.00 L 331.00 374.00 L 330.81 375.36 L 330.32 376.52 L 329.54 377.54 L 328.52 378.32 L 327.36 378.81 L 326.00 379.00 L 267.00 379.00 L 265.64 378.81 L 264.48 378.32 L 263.46 377.54 L 262.68 376.52 L 262.19 375.36 L 262.00 374.00 L 262.00 374.00 L 262.19 372.64 L 262.68 371.48 L 263.46 370.46 L 264.48 369.68 L 265.64 369.19 L 267.00 369.00 Z" fill="#ffffff" fill-rule="evenodd" group-id="3" id="Rectangle" node-id="48" stroke="none" target-height="10" target-width="69" target-x="262" target-y="369"></path><path d="M 273.00 314.00 L 320.00 314.00 L 321.36 314.19 L 322.52 314.68 L 323.54 315.46 L 324.32 316.48 L 324.81 317.64 L 325.00 319.00 L 325.00 319.00 L 324.81 320.36 L 324.32 321.52 L 323.54 322.54 L 322.52 323.32 L 321.36 323.81 L 320.00 324.00 L 273.00 324.00 L 271.64 323.81 L 270.48 323.32 L 269.46 322.54 L 268.68 321.52 L 268.19 320.36 L 268.00 319.00 L 268.00 319.00 L 268.19 317.64 L 268.68 316.48 L 269.46 315.46 L 270.48 314.68 L 271.64 314.19 L 273.00 314.00 Z" fill="#ffffff" fill-rule="evenodd" group-id="3" id="Rectangle" node-id="49" stroke="none" target-height="10" target-width="57" target-x="268" target-y="314"></path><path d="M 296.50 436.25 L 281.57 444.10 L 280.80 444.32 L 280.05 444.24 L 279.38 443.88 L 278.87 443.26 L 278.67 442.64 L 278.67 441.99 L 281.52 425.37 L 281.52 425.37 L 269.44 413.59 L 268.99 412.93 L 268.84 412.19 L 268.97 411.44 L 269.41 410.77 L 269.93 410.38 L 270.55 410.18 L 287.24 407.76 L 287.24 407.76 L 294.71 392.63 L 295.20 392.00 L 295.86 391.63 L 296.61 391.52 L 297.39 391.73 L 297.91 392.10 L 298.29 392.63 L 305.76 407.76 L 305.76 407.76 L 322.45 410.18 L 323.20 410.45 L 323.76 410.97 L 324.09 411.65 L 324.14 412.45 L 323.94 413.07 L 323.56 413.59 L 311.48 425.37 L 311.48 425.37 L 314.33 441.99 L 314.31 442.79 L 313.99 443.48 L 313.44 444.01 L 312.70 444.30 L 312.05 444.30 L 311.43 444.10 L 296.50 436.25 L 296.50 436.25 Z" fill="#e7eaf0" fill-rule="evenodd" group-id="3" id="Star" node-id="50" stroke="none" target-height="52.800354" target-width="55.299774" target-x="268.8398" target-y="391.5216"></path><path d="M 231.78 303.00 L 233.00 353.00 L 211.00 353.00 Z" fill="url(#linearGradient-9)" fill-rule="nonzero" group-id="3" id="Path-8" node-id="51" stroke="none" target-height="50" target-width="22" target-x="211" target-y="303"></path><path d="M 361.22 303.00 L 360.00 353.00 L 382.00 353.00 Z" fill="url(#linearGradient-9)" fill-rule="nonzero" group-id="3,5" id="Path-8-Copy" node-id="52" stroke="none" target-height="50" target-width="22" target-x="360" target-y="303"></path><path d="M 254.78 234.80 L 255.25 242.99 L 256.18 249.93 L 257.50 255.78 L 259.17 260.67 L 261.12 264.73 L 263.33 268.08 L 265.79 270.80 L 268.51 272.97 L 271.51 274.64 L 274.83 275.83 L 278.54 276.52 L 282.71 276.69 L 287.15 276.22 L 291.14 275.21 L 294.75 273.67 L 298.12 271.63 L 301.05 269.30 L 303.57 266.66 L 305.75 263.72 L 307.43 260.74 L 308.65 257.70 L 309.45 254.53 L 309.71 251.58 L 309.48 248.81 L 308.96 246.79 L 308.13 245.01 L 307.00 243.43 L 305.53 242.01 L 303.87 240.93 L 301.83 240.10 L 299.34 239.56 L 296.30 239.35 L 293.89 240.48 L 291.89 241.83 L 290.24 243.39 L 288.91 245.18 L 287.92 247.18 L 287.31 249.31 L 287.09 251.61 L 287.28 254.13 L 287.85 256.52 L 288.88 259.02 L 290.43 261.67 L 292.58 264.50 L 294.92 266.95 L 297.87 269.45 L 301.53 272.00 L 305.98 274.62 L 310.39 276.77 L 315.57 278.87 L 321.63 280.89 L 328.66 282.81 L 333.06 283.52 L 336.60 284.53 L 339.42 285.78 L 341.65 287.25 L 343.65 289.14 L 345.15 291.18 L 346.21 293.39 L 346.83 295.82 L 347.07 299.20 L 346.70 302.80 L 345.66 306.70 L 344.14 310.46 L 342.12 314.24 L 339.58 318.05 L 336.70 321.63 L 333.52 324.96 L 330.01 328.06 L 326.25 330.82 L 322.39 333.09 L 318.42 334.89" fill="none" group-id="3,6" id="Path-11" node-id="53" stroke="#d1d6e2" stroke-dasharray="4 4" stroke-linecap="round" stroke-width="1" target-height="100.09213" target-width="92.28839" target-x="254.7826" target-y="234.79807"></path><path d="M 244.61 218.97 L 230.89 224.36 L 225.85 180.21 L 270.88 208.92 L 258.62 214.21 L 230.40 186.61 L 252.77 216.71 L 252.65 229.18 Z" fill="url(#linearGradient-10)" fill-rule="nonzero" group-id="3,7" id="路径" node-id="55" stroke="none" target-height="48.965088" target-width="45.025635" target-x="225.8516" target-y="180.21193"></path></svg>