<?xml version="1.0" standalone="no"?><!DOCTYPE svg PUBLIC "-//W3C//DTD SVG 1.1//EN" "http://www.w3.org/Graphics/SVG/1.1/DTD/svg11.dtd"><svg t="1703146225919" class="icon" viewBox="0 0 1024 1024" version="1.1" xmlns="http://www.w3.org/2000/svg" p-id="11842" xmlns:xlink="http://www.w3.org/1999/xlink" width="200" height="200"><path d="M737.28 0H81.92a81.92 81.92 0 0 0-81.92 81.92v655.36a81.92 81.92 0 0 0 81.92 81.92h655.36a81.92 81.92 0 0 0 81.92-81.92V81.92a81.92 81.92 0 0 0-81.92-81.92z m0 737.28H81.92V81.92h655.36z" fill="#1b65b9" p-id="11843" data-spm-anchor-id="a313x.search_index.0.i6.6ea93a81OVduqg" class="selected"></path><path d="M327.68 327.68h655.36v655.36H327.68z" fill="#FFFFFF" p-id="11844"></path><path d="M950.272 286.72H360.448A74.1376 74.1376 0 0 0 286.72 360.448v589.824A74.1376 74.1376 0 0 0 360.448 1024h589.824a74.1376 74.1376 0 0 0 73.728-73.728V360.448A74.1376 74.1376 0 0 0 950.272 286.72z m-18.432 645.12H378.88V378.88h552.96z" fill="#1b65b9" p-id="11845" data-spm-anchor-id="a313x.search_index.0.i4.6ea93a81OVduqg" class="selected"></path></svg>